<?xml version="1.0" encoding="UTF-8"?>
<svg width="221px" height="126px" viewBox="0 0 221 126" version="1.1" xmlns="http://www.w3.org/2000/svg" xmlns:xlink="http://www.w3.org/1999/xlink">
    <!-- Generator: Sketch 48.1 (47250) - http://www.bohemiancoding.com/sketch -->
    <title>Group 2 Copy</title>
    <desc>Created with Sketch.</desc>
    <defs></defs>
    <g id="Page-1" stroke="none" stroke-width="1" fill="none" fill-rule="evenodd">
        <g id="Group-2-Copy" transform="translate(-1.000000, 0.000000)" fill="#BD0B0B">
            <g id="Group-16">
                <path d="M36.6438155,1.93977363 C31.6244957,1.84124146 26.1060538,6.08320723 24.3467613,11.4535457 C22.6218043,16.7190731 25.1300888,20.9147781 29.9711975,20.993973 C34.9995048,21.0762301 40.5134266,16.8428394 42.2701853,11.4802356 C43.9939506,6.21834597 41.4901158,2.03490934 36.6438155,1.93977363 Z M36.6670242,0.715716843 C42.3683109,0.827636428 45.3798473,5.85934679 43.4116468,11.8673884 C41.493265,17.7233558 35.5202884,22.3091923 29.9518559,22.2180993 C24.2525956,22.1248662 21.2357674,17.0785003 23.2052998,11.066393 C25.1263564,5.20226064 31.1050149,0.606531355 36.6670242,0.715716843 Z" id="Shape" fill-rule="nonzero"></path>
                <path d="M27.8979029,4.94532009 L28.8730895,4.22819247 C29.0677053,4.50219465 29.504002,4.9468418 30.1941604,5.3999637 C32.9709093,7.22303174 36.9419514,7.26270274 42.3301772,4.24035095 L42.9110442,5.31251739 C37.1447763,8.54691974 32.7005062,8.50252115 29.541811,6.42868719 C28.7154355,5.88613221 28.174754,5.33510249 27.8979029,4.94532009 Z" id="Shape" fill-rule="nonzero"></path>
                <polygon id="Shape" fill-rule="nonzero" points="23.7648026 11.8547616 23.7872585 10.6306903 42.852144 10.9928026 42.8296881 12.2168739"></polygon>
                <path d="M24.5824179,19.0472698 L23.9186508,18.0261362 C24.0558573,17.9337957 24.3046091,17.778282 24.6506462,17.5806727 C25.222681,17.2540042 25.8630007,16.9278616 26.5576237,16.6234165 C28.9327624,15.582421 31.3408485,15.0410298 33.6167504,15.2753594 C35.5733167,15.4768098 37.3211601,16.2526803 38.7836522,17.6812687 L37.9503936,18.564452 C36.6888171,17.3321215 35.1931831,16.6682071 33.4956184,16.4934239 C31.4552691,16.2833471 29.2372113,16.7820157 27.0336157,17.7478259 C26.3795868,18.034479 25.7765027,18.341656 25.2395205,18.6483072 C24.9201475,18.8306896 24.6961537,18.9707251 24.5824179,19.0472698 Z" id="Shape" fill-rule="nonzero"></path>
                <path d="M34.339286,1.01190424 L35.1077369,1.95396824 C34.9124782,2.11887209 34.5603721,2.44276788 34.1039004,2.90852205 C33.3393134,3.68865723 32.5741622,4.57697576 31.8608107,5.55564054 C28.0672424,10.7601321 27.2525947,16.1158402 31.1495197,21.086969 L31.1942108,21.1378184 L30.2987245,21.9526689 L30.2540335,21.9018195 C25.9082259,16.3648645 26.8112606,10.428078 30.8943965,4.8263214 C31.6448797,3.79671461 32.4481228,2.86417246 33.2519301,2.04401953 C33.736495,1.54960083 34.1163062,1.2002197 34.339286,1.01190424 Z" id="Shape" fill-rule="nonzero"></path>
                <polygon id="Shape" fill-rule="nonzero" points="32.2470987 21.5312304 31.0652677 21.3014862 34.8274051 1.26460347 36.0092361 1.49434767"></polygon>
                <path d="M36.1228177,1.61239811 L37.188022,1.04309237 C40.7576634,7.9581631 39.1849556,16.4632454 33.3894702,21.5853674 L32.6004535,20.661072 C37.974557,15.9113726 39.4329153,8.02468336 36.1228177,1.61239811 Z" id="Shape" fill-rule="nonzero"></path>
                <path d="M82.4619847,45.8158325 C79.9369466,48.281645 51.5853435,74.8020629 49.1450382,76.6126246 C44.9761832,79.7336881 41.4343511,83.8893583 34.7235115,83.8893583 L31.6731298,83.8893583 C30.690229,83.8893583 30.5716031,84.2859575 30.3512977,85.1826166 L29.9276336,87.9415677 C29.8259542,88.5968186 30.4021374,88.9761744 31.2325191,88.9761744 C32.9271756,88.9761744 38.7567939,88.5795752 45.5862595,88.5795752 C57.1777099,88.5795752 62.3633588,88.9761744 64.0410687,88.9761744 C65.430687,88.9761744 65.549313,88.4588711 65.6509924,87.6829161 L65.8035115,85.2171035 C65.9051908,84.5618526 65.8035115,83.9238451 65.040916,83.9238451 L62.2447328,83.9238451 C58.1945038,83.9238451 57.601374,80.6820775 59.550229,77.8196657 C64.4816794,70.6981231 82.0044275,53.2305137 84.1227481,51.1440569 C85.3598473,53.4891653 94.1381679,77.1299279 94.7821374,78.9577331 C95.5955725,81.164894 95.1719084,83.8893583 91.6978626,83.8893583 L89.189771,83.8893583 C88.8906053,83.8387698 88.5846981,83.9244034 88.3530631,84.1235804 C88.1214282,84.3227575 87.9874334,84.6153846 87.9865649,84.9239649 L87.5798473,87.7863767 C87.4781679,88.5623318 87.7832061,88.958931 88.6135878,88.958931 C91.409771,88.958931 96.5445802,88.5623318 105.560153,88.5623318 C119.236031,88.5623318 123.455725,88.958931 124.980916,88.958931 C126.234962,88.958931 126.370534,88.7002793 126.319695,87.9243243 L126.455267,85.19986 C126.455267,84.2859575 126.251908,83.9066017 125.269008,83.9066017 L122.472824,83.9066017 C119.676641,83.9066017 115.897557,81.0441899 114.30458,77.1471714 L98.4256489,38.935698 C99.6458015,37.9355782 126.624733,12.0704113 128.234656,10.8461267 C131.623969,8.3803141 135.674198,6.17315319 139.012672,6.17315319 L141.385191,6.17315319 C142.368092,6.17315319 142.486718,5.91450152 142.588397,5.13854651 L142.842595,2.01748302 C142.961221,1.50017969 142.656183,1.10358046 141.402137,1.10358046 C139.86,1.10358046 135.843664,1.50017969 128.438015,1.50017969 C118.388702,1.50017969 113.186107,1.10358046 111.389771,1.10358046 C110.135725,1.10358046 109.86458,1.36223213 109.695115,1.87953547 L109.508702,5.1730334 C109.423969,6.08693596 109.695115,6.20764008 110.678015,6.20764008 L113.186107,6.20764008 C117.100763,6.20764008 118.371756,9.32870356 116.829618,11.9324637 C115.287481,14.5362238 97.9341985,32.4694063 96.4937405,33.7626646 L88.5458015,12.6739318 C87.4103817,9.55286834 87.0883969,6.17315319 90.7149618,6.17315319 L93.3755725,6.17315319 C94.3584733,6.17315319 94.4770992,5.77655396 94.5787786,5.13854651 L94.9007634,2.27613469 C95.0024427,1.6208838 94.9007634,1.10358046 93.5789313,1.10358046 C91.7656489,1.10358046 87.3087023,1.50017969 78.6659542,1.50017969 C67.0745038,1.50017969 60.7703817,1.10358046 58.3300763,1.10358046 C57.4996947,1.10358046 57.3810687,1.50017969 57.2793893,2.39683881 L56.9912977,4.86265139 C56.9065649,5.77655396 57.1946565,6.15590974 58.1775573,6.15590974 L61.8041221,6.15590974 C65.2951145,6.15590974 67.1422901,9.39767734 69.209771,14.2085984 L82.4450382,45.798589 L82.4619847,45.8158325 Z M182.446718,14.8810927 L164.127481,80.1302873 C163.297099,82.9926991 165.025649,83.9066017 167.398168,83.9066017 L178.14229,83.9066017 C184.050206,84.0714068 189.962556,83.8987008 195.85145,83.3892984 C198.255877,82.9825249 200.457273,81.7684536 202.104733,79.9406094 C207.121894,75.3016792 211.896105,70.3977844 216.407634,65.2491946 C216.916031,64.2145879 217.305802,63.8179887 217.881985,63.9559362 L220.440916,64.9905429 C221.152672,65.2491946 221.169618,65.5078462 221.050992,65.9044455 C220.474809,68.1116064 216.255115,83.5789762 214.967176,88.3209235 C214.611298,89.6141819 213.967328,90.4073803 213.272519,90.4073803 C212.025571,90.2662845 210.794378,90.0064951 209.595115,89.6314253 C207.89725,89.1639741 206.150804,88.9034957 204.392519,88.8554703 C201.325191,88.8554703 183.71771,88.4588711 157.738626,88.4588711 C146.57084,88.4588711 135.284427,88.8554703 133.74229,88.8554703 C132.911908,88.8554703 132.471298,88.5968186 132.556031,87.562212 L132.979695,84.8377477 C132.980563,84.5291674 133.114558,84.2365403 133.346193,84.0373632 C133.577828,83.8381861 133.883735,83.7525526 134.182901,83.803141 L136.284275,83.803141 C141.029313,83.803141 144.028855,82.3719351 146.265802,74.4399506 L163.212366,14.0878943 C164.907023,8.36307066 163.212366,6.03520563 159.162137,6.03520563 L154.078168,6.03520563 C153.095267,6.03520563 152.807176,5.6386064 152.908855,5.00059895 L153.72229,1.75883135 C153.823969,1.10358046 154.247634,0.982876345 155.416947,0.982876345 C156.959084,0.982876345 162.975115,1.37947557 175.752824,1.37947557 C190.123511,1.37947557 196.529313,0.982876345 198.07145,0.982876345 C198.901832,0.982876345 199.342443,1.37947557 199.25771,2.27613469 L198.461221,5.1730334 C198.223969,5.94898841 197.817252,6.20764008 196.766565,6.20764008 L191.885954,6.20764008 C187.07313,6.17315319 184.361679,7.60435909 182.361985,14.8810927 L182.446718,14.8810927 Z" id="Shape"></path>
                <path d="M5.08396947,44.0052708 C5.08396947,44.0052708 14.6418321,29.6587248 16.8448855,35.8663649 C16.8448855,35.8663649 17.4719084,36.8319978 15.7433588,41.763623 C11.6563299,51.2883464 8.20275305,61.0816801 5.4059542,71.0774789 C5.4059542,71.0774789 0.711755725,83.8376279 6.33801527,88.1312456 C6.33801527,88.1312456 16.6754198,93.5456873 30.1648855,78.2507519 L35.5877863,70.6981231 C36.64958,69.8544503 36.9638296,68.3574165 36.3334351,67.1459735 C36.3334351,67.1459735 35.5538931,65.7147676 33.2830534,68.0253892 L26.8433588,75.8711565 C26.8433588,75.8711565 23.5557252,79.7854184 22.1491603,76.8367894 C22.1491603,76.8367894 20.1833588,76.0435909 23.9454962,67.4218686 L30.9274809,47.816072 C30.9274809,47.816072 35.791145,33.3143351 32.9610687,29.1586649 C32.9610687,29.1586649 29.3514504,21.9853919 18.539542,27.2446426 C18.539542,27.2446426 12.1167939,27.88265 1.5929771,42.5568214 C1.5929771,42.5568214 0.881221374,44.6777651 2.35557252,45.1088512 C2.83061793,45.4912709 3.4701437,45.5866136 4.03303981,45.3589337 C4.59593592,45.1312538 4.99659744,44.6151768 5.08396947,44.0052708 Z" id="Shape"></path>
            </g>
            <g id="Group" transform="translate(4.316667, 105.202724)">
                <path d="M18.8327431,19.5705815 C18.8327431,19.4819487 18.8327431,19.4110424 18.6216982,19.4110424 L17.7775189,19.4110424 C17.2595626,19.4362586 16.7567559,19.2166475 16.3976105,18.8083394 C15.4397917,17.5143007 12.7124432,13.3131063 11.1052557,10.8136616 C12.5907456,8.61718231 14.2473949,6.56507578 16.0566919,4.68027239 C16.5443949,4.35942207 17.1130423,4.21661033 17.6801136,4.27256155 L18.3619508,4.27256155 C18.4918245,4.27256155 18.5080587,4.27256155 18.5080587,4.05984285 L18.5080587,3.51031954 C18.5080587,3.38623363 18.5080587,3.29760084 18.2970139,3.29760084 C18.0859691,3.29760084 17.1281503,3.29760084 15.7320076,3.29760084 C13.7676673,3.29760084 12.7286774,3.29760084 12.4851641,3.29760084 C12.2416509,3.29760084 12.3065878,3.29760084 12.3065878,3.45713986 L12.3065878,4.05984285 C12.3065878,4.18392876 12.3065878,4.27256155 12.4526957,4.27256155 L13.0858302,4.27256155 C13.670262,4.27256155 13.8001357,4.55618649 13.8001357,4.82208486 C12.8770602,6.61612215 11.7891744,8.30292648 10.5532923,9.85642745 L10.455887,9.85642745 C9.40691647,8.24685631 8.46299951,6.55866183 7.63113321,4.8043583 C7.63113321,4.46755369 7.93958333,4.27256155 8.34543876,4.27256155 L8.96233902,4.27256155 C9.17338384,4.27256155 9.18961806,4.27256155 9.18961806,4.05984285 L9.18961806,3.51031954 C9.18961806,3.38623363 9.18961806,3.29760084 8.97857323,3.29760084 C8.76752841,3.29760084 7.67983586,3.29760084 5.13106376,3.29760084 C2.58229167,3.29760084 1.39719381,3.29760084 1.13744634,3.29760084 C0.877698864,3.29760084 1.0075726,3.29760084 1.0075726,3.49259298 L1.0075726,4.09529597 C1.0075726,4.18392876 1.0075726,4.29028811 1.13744634,4.29028811 L1.99785985,4.29028811 C2.407029,4.29499704 2.80870332,4.41073831 3.16672348,4.62709272 C3.78362374,5.1057098 7.07916982,10.5654898 8.32920455,12.4090519 C6.78346433,14.6757106 5.04399903,16.7768852 3.13425505,18.6842535 C2.5716391,19.1095219 1.91671738,19.3662338 1.23485164,19.428769 L0.617951389,19.428769 C0.488077652,19.428769 0.471843434,19.428769 0.471843434,19.588308 L0.471843434,20.1378313 C0.471843434,20.2973704 0.471843434,20.4037297 0.617951389,20.4037297 C0.764059343,20.4037297 1.86798611,20.4037297 3.36153409,20.4037297 C5.42327967,20.4037297 6.41356692,20.4037297 6.60837753,20.4037297 C6.80318813,20.4037297 6.81942235,20.4037297 6.81942235,20.191011 L6.81942235,19.5705815 C6.81942235,19.5705815 6.81942235,19.428769 6.60837753,19.428769 L5.87783775,19.428769 C5.71737214,19.4434735 5.55846029,19.3852313 5.43861518,19.2677911 C5.31877007,19.1503509 5.24861225,18.9841201 5.24470328,18.8083394 C6.26044011,16.8933661 7.43417553,15.0836545 8.75129419,13.4017391 L8.84869949,13.4017391 C10.0201369,15.2055142 11.1039138,17.0752924 12.0955429,19.0033316 C12.0955429,19.3224096 11.8844981,19.428769 11.3000663,19.428769 L10.9916162,19.428769 C10.8617424,19.428769 10.8455082,19.428769 10.8455082,19.588308 L10.8455082,20.191011 C10.8455082,20.3328235 10.8455082,20.4037297 11.056553,20.4037297 C11.2675979,20.4037297 12.6799747,20.4037297 14.644315,20.4037297 C17.5502399,20.4037297 18.4268876,20.4037297 18.6379324,20.4037297 C18.8489773,20.4037297 18.8489773,20.3150969 18.8489773,20.2087376 L18.8489773,19.588308 L18.8327431,19.5705815 Z M23.4107923,11.9481613 C23.4107923,13.2244735 23.4107923,18.4006286 23.2809186,18.7551598 C23.1510448,19.1096909 22.6477841,19.3933159 22.1445234,19.3933159 L21.4139836,19.3933159 C21.2841098,19.3933159 21.2029388,19.3933159 21.2029388,19.5351283 L21.2029388,20.191011 C21.2029388,20.3328235 21.2029388,20.3860031 21.4139836,20.3860031 C21.6250284,20.3860031 22.793892,20.3860031 25.4563037,20.3860031 C27.875202,20.3860031 28.8817235,20.3860031 29.1901736,20.3860031 C29.4986237,20.3860031 29.4174527,20.3860031 29.4174527,20.2441907 L29.4174527,19.5705815 C29.4174527,19.4464955 29.4174527,19.4110424 29.2064078,19.4110424 L28.1674179,19.4110424 C27.6803914,19.4110424 27.3070044,19.2869565 27.3070044,18.5424411 C27.3070044,18.3297224 27.3070044,12.7990361 27.3070044,12.5508643 L27.3070044,10.7782085 C27.3070044,10.4945836 27.3070044,5.19434259 27.3070044,4.96389733 C27.3070044,4.73345207 27.6803914,4.34346778 28.3297601,4.34346778 L29.0602999,4.34346778 C29.1901736,4.34346778 29.2713447,4.34346778 29.2713447,4.18392876 L29.2713447,3.58122577 C29.2713447,3.43941331 29.2713447,3.36850707 29.0927683,3.36850707 C28.9141919,3.36850707 27.9239047,3.36850707 25.3264299,3.36850707 C22.7289552,3.36850707 21.5438573,3.36850707 21.2354072,3.36850707 C20.9269571,3.36850707 21.0568308,3.36850707 21.0568308,3.51031954 L21.0568308,4.20165532 C21.0568308,4.29028811 21.0568308,4.34346778 21.2678756,4.34346778 L22.4854419,4.34346778 C22.7019479,4.29926972 22.9250198,4.36660682 23.0899917,4.5259588 C23.2549636,4.68531079 23.3433841,4.91885497 23.3296212,5.15888947 C23.3296212,5.47796752 23.4270265,9.78552122 23.4270265,10.3527711 L23.4270265,12.0367941 L23.4107923,11.9481613 Z M39.0930461,10.7427554 C39.0930461,9.05873232 39.0930461,5.42478785 39.0930461,5.14116291 C39.0930461,4.50300681 39.1904514,4.25483499 39.985928,4.25483499 L41.1872601,4.25483499 C41.3983049,4.25483499 41.4470076,4.25483499 41.4470076,4.05984285 L41.4470076,3.51031954 C41.4470076,3.35078051 41.4470076,3.26214772 41.2197285,3.26214772 C40.9924495,3.26214772 39.9209912,3.26214772 36.9501294,3.26214772 C34.6286364,3.26214772 33.703286,3.26214772 33.4435385,3.26214772 C33.183791,3.26214772 33.2649621,3.26214772 33.2649621,3.42168675 L33.2649621,3.98893662 C33.2649621,4.11302252 33.2649621,4.23710843 33.4435385,4.23710843 L34.3851231,4.23710843 C34.9695549,4.23710843 35.0994287,4.48528025 35.1481313,5.1057098 C35.196834,5.72613934 35.1481313,8.03059193 35.1481313,9.55507596 L35.1481313,10.9022944 C35.1481313,12.3558722 35.1481313,18.3297224 35.1481313,18.7906129 C35.1481313,19.2515034 35.0020234,19.3933159 34.0604388,19.3933159 L33.2649621,19.3933159 C33.1188542,19.3933159 33.0863857,19.3933159 33.0863857,19.5528549 L33.0863857,20.1555579 C33.0863857,20.3150969 33.0863857,20.3682766 33.2974306,20.3682766 C33.5084754,20.3682766 34.5474653,20.3682766 37.0637689,20.3682766 C39.5800726,20.3682766 46.8042992,20.3682766 47.3887311,20.3682766 C47.534839,19.7301205 48.5575947,15.7593714 48.6387658,15.5998324 C48.7199369,15.4402933 48.6387658,15.4402933 48.6387658,15.3871137 L48.1355051,15.1921215 C47.9893971,15.1921215 47.908226,15.1921215 47.8270549,15.333934 C47.4536679,16.2202619 45.7166067,19.0919644 44.3366982,19.2160503 C42.9567898,19.3401362 41.8203946,19.3401362 40.6190625,19.3401362 L39.1742172,19.3401362 C39.1742172,18.382902 39.1742172,13.206747 39.1742172,12.7990361 L39.1742172,10.7427554 L39.0930461,10.7427554 Z M60.7007891,13.7385437 C61.0092393,14.6071451 61.9995265,17.6738397 62.2268056,18.5247145 C62.4540846,19.3755893 62.2268056,19.3933159 61.4637973,19.3933159 L60.7494918,19.3933159 C60.6196181,19.3933159 60.6033838,19.4819487 60.6033838,19.6060346 L60.6033838,20.0669251 C60.6033838,20.2264641 60.6033838,20.3860031 60.8793655,20.3860031 C61.3826263,20.3860031 62.2755082,20.3860031 64.3859564,20.3860031 C67.6327999,20.3860031 68.168529,20.3860031 68.6555556,20.3860031 C68.8666004,20.3860031 68.8828346,20.2264641 68.8828346,20.0669251 L68.8828346,19.6060346 C68.8828346,19.4819487 68.8828346,19.3933159 68.7042582,19.3933159 L67.8113763,19.3933159 C67.1842628,19.3254864 66.6297868,18.9196377 66.3340625,18.3119958 C65.9769097,17.6738397 64.3210196,13.206747 63.7365878,11.3454584 C63.2495612,9.80324777 61.2689867,4.44982713 60.7819602,2.94306967 C60.7819602,2.67717129 60.6520865,2.53535883 60.5059785,2.53535883 C60.3598706,2.53535883 60.2949337,2.62399162 60.1812942,2.74807753 C59.3072309,3.3306073 58.345258,3.73876388 57.3403062,3.9534835 C57.1292614,3.9534835 57.0805587,4.09529597 57.0805587,4.1662022 C57.0805587,4.23710843 57.177964,4.3789209 57.2591351,4.48528025 C57.3403062,4.5916396 57.2591351,5.05253012 57.2591351,5.30070194 C57.0318561,5.9565846 54.9701105,11.0972865 54.7752999,11.5759036 C53.9311206,13.6853641 52.1291225,17.8511053 51.7719697,18.3651755 C51.3821939,18.9914333 50.7439802,19.3793204 50.0511427,19.4110424 L49.3855398,19.4110424 C49.2394318,19.4110424 49.2069634,19.4110424 49.2069634,19.6237611 L49.2069634,20.0846517 C49.2069634,20.2441907 49.2069634,20.4037297 49.3855398,20.4037297 C49.5641162,20.4037297 50.2946559,20.4037297 52.1615909,20.4037297 C54.0285259,20.4037297 55.2947948,20.4037297 55.6194792,20.4037297 C55.9441635,20.4037297 55.8467582,20.4037297 55.8467582,20.1378313 L55.8467582,19.6060346 C55.8467582,19.5174018 55.8467582,19.4110424 55.5707765,19.4110424 L54.6778946,19.4110424 C54.4051515,19.4396282 54.1351486,19.3323706 53.9429852,19.1191028 C53.7508219,18.9058349 53.656997,18.6093068 53.6876073,18.3119958 C54.0399691,16.7481597 54.5236314,15.2231295 55.1324527,13.7562703 L60.7007891,13.7385437 Z M55.457137,12.7813096 C55.6681818,12.1786066 57.8435669,6.52383447 57.9734407,6.22248298 C58.1033144,5.92113148 58.1195486,5.90340492 58.2818908,5.90340492 C58.444233,5.90340492 58.4604672,6.06294395 58.5578725,6.43520168 C58.6552778,6.8074594 60.1812942,12.0722472 60.4572759,12.7813096 L55.457137,12.7813096 Z M73.3147759,11.9481613 C73.3147759,13.2244735 73.3147759,18.4006286 73.1849021,18.7551598 C73.0550284,19.1096909 72.5517677,19.3933159 72.0485069,19.3933159 L71.3179672,19.3933159 C71.1880934,19.3933159 71.1069223,19.3933159 71.1069223,19.5351283 L71.1069223,20.191011 C71.1069223,20.3328235 71.1069223,20.3860031 71.3179672,20.3860031 C71.529012,20.3860031 72.6978756,20.3860031 75.3602872,20.3860031 C77.7791856,20.3860031 78.7857071,20.3860031 79.0941572,20.3860031 C79.4026073,20.3860031 79.3214362,20.3860031 79.3214362,20.2441907 L79.3214362,19.5705815 C79.3214362,19.4464955 79.3214362,19.4110424 79.1103914,19.4110424 L78.0714015,19.4110424 C77.584375,19.4110424 77.210988,19.2869565 77.210988,18.5424411 C77.210988,18.3297224 77.210988,12.7990361 77.210988,12.5508643 L77.210988,10.7782085 C77.210988,10.4945836 77.210988,5.19434259 77.210988,4.96389733 C77.210988,4.73345207 77.584375,4.34346778 78.2337437,4.34346778 L78.9642835,4.34346778 C79.0941572,4.34346778 79.1590941,4.34346778 79.1590941,4.18392876 L79.1590941,3.58122577 C79.1590941,3.43941331 79.1590941,3.36850707 78.9805177,3.36850707 C78.8019413,3.36850707 77.811654,3.36850707 75.2141793,3.36850707 C72.6167045,3.36850707 71.4316067,3.36850707 71.1231566,3.36850707 C70.8147064,3.36850707 70.9445802,3.36850707 70.9445802,3.51031954 L70.9445802,4.20165532 C70.9445802,4.29028811 70.9445802,4.34346778 71.155625,4.34346778 L72.3731913,4.34346778 C72.5896972,4.29926972 72.8127692,4.36660682 72.9777411,4.5259588 C73.142713,4.68531079 73.2311335,4.91885497 73.2173706,5.15888947 C73.2173706,5.47796752 73.3147759,9.78552122 73.3147759,10.3527711 L73.3147759,12.0367941 L73.3147759,11.9481613 Z M92.9744129,4.1662022 L96.3348958,4.25483499 C97.0139175,4.31029835 97.6734561,4.52816405 98.2667677,4.89299109 C99.3263971,5.7039471 100.330194,6.59857823 101.270098,7.56970141 C101.338424,7.67888878 101.469852,7.7166543 101.578548,7.65833421 L101.984403,7.46334206 C102.114277,7.46334206 102.114277,7.33925616 101.984403,7.21517025 C101.85453,7.09108434 101.042819,3.66985856 100.945414,3.35078051 C100.848008,3.03170246 100.945414,3.2266946 100.734369,3.2266946 C100.523324,3.2266946 100.117468,3.2266946 99.711613,3.2266946 L90.7827936,3.2266946 C88.4613005,3.2266946 87.5359501,3.2266946 87.0164552,3.2266946 C86.8703472,3.2266946 86.8378788,3.3153274 86.8378788,3.38623363 L86.8378788,3.9534835 C86.8378788,4.11302252 86.8378788,4.20165532 86.9677525,4.20165532 L87.9580398,4.20165532 C88.6398769,4.20165532 88.8996244,4.36119434 88.9970297,5.14116291 C88.9970297,5.38933473 88.9970297,8.33194343 88.9970297,10.317318 L88.9970297,18.3474489 C88.9970297,19.1805972 88.8996244,19.3578628 87.7307607,19.3578628 L86.9677525,19.3578628 C86.7891761,19.3578628 86.7080051,19.3578628 86.7080051,19.5705815 L86.7080051,20.0669251 C86.7080051,20.2619172 86.7080051,20.3328235 86.9352841,20.3328235 L88.0229766,20.3328235 L98.9323706,20.3328235 L101.253864,20.3328235 C101.489408,20.3609348 101.713887,20.2167502 101.805827,19.9782923 L102.942222,16.4329806 C102.942222,16.4329806 102.942222,16.2911682 102.844817,16.2379885 L102.406493,15.9898167 C102.406493,15.9898167 102.260385,15.9898167 102.146746,15.9898167 C101.330576,16.9045909 100.463076,17.7630328 99.5492708,18.5601676 C98.9757477,18.9966526 98.3119176,19.2707567 97.617399,19.3578628 C97.0816698,19.3578628 95.9939773,19.3578628 95.5881218,19.3578628 C94.8733344,19.4155976 94.1547246,19.3437196 93.4614394,19.1451441 C93.1367551,19.0033316 92.8445391,18.5778942 92.8445391,17.3724882 C92.8445391,16.9470508 92.7146654,14.6248717 92.7146654,13.3308329 L92.7146654,11.8949817 C93.582379,11.8814129 94.4499938,11.9287814 95.3121402,12.0367941 C95.8592411,12.1049925 96.3602646,12.4039783 96.7082828,12.8699424 C96.9116642,13.2590352 97.0801982,13.668643 97.2115436,14.0930749 C97.2115436,14.2526139 97.3089489,14.3057936 97.4225884,14.2880671 L98.0394886,14.1639811 C98.1693624,14.1639811 98.2667677,14.1639811 98.2505335,13.968989 C98.1594352,13.0623228 98.1106694,12.1511801 98.1044255,11.239099 C98.0589142,10.4066918 98.0589142,9.57206147 98.1044255,8.73965427 C98.1044255,8.5978418 98.1044255,8.58011524 97.8933807,8.54466213 L97.2115436,8.54466213 C97.0816698,8.54466213 97.0004987,8.54466213 97.0004987,8.75738083 C96.94241,9.30521129 96.7393132,9.82266656 96.4160669,10.2464117 C96.1103166,10.6259218 95.7002418,10.8871217 95.2472033,10.9909272 C94.3853076,11.1022306 93.5174934,11.14961 92.6497285,11.1327397 L92.6497285,4.1662022 L92.9744129,4.1662022 Z M122.390814,19.5705815 C122.390814,19.4819487 122.390814,19.4110424 122.17977,19.4110424 L121.384293,19.4110424 C120.866337,19.4362586 120.36353,19.2166475 120.004384,18.8083394 C119.046566,17.5143007 116.319217,13.3131063 114.71203,10.8136616 C116.19752,8.61718231 117.854169,6.56507578 119.663466,4.68027239 C120.151169,4.35942207 120.719816,4.21661033 121.286888,4.27256155 L121.968725,4.27256155 C122.098598,4.27256155 122.114833,4.27256155 122.114833,4.05984285 L122.114833,3.51031954 C122.114833,3.38623363 122.114833,3.29760084 121.903788,3.29760084 C121.692743,3.29760084 120.734924,3.29760084 119.338782,3.29760084 C117.374441,3.29760084 116.335451,3.29760084 116.091938,3.29760084 C115.848425,3.29760084 115.913362,3.29760084 115.913362,3.45713986 L115.913362,4.05984285 C115.913362,4.18392876 115.913362,4.27256155 116.05947,4.27256155 L116.692604,4.27256155 C117.277036,4.27256155 117.40691,4.55618649 117.40691,4.82208486 C116.483834,6.61612215 115.395948,8.30292648 114.160066,9.85642745 L114.062661,9.85642745 C113.013556,8.24695336 112.069633,6.55874829 111.237907,4.8043583 C111.237907,4.46755369 111.546357,4.27256155 111.952213,4.27256155 L112.569113,4.27256155 C112.780158,4.27256155 112.796392,4.27256155 112.796392,4.05984285 L112.796392,3.51031954 C112.796392,3.38623363 112.796392,3.29760084 112.585347,3.29760084 C112.374302,3.29760084 111.28661,3.29760084 108.737838,3.29760084 C106.189066,3.29760084 105.003968,3.29760084 104.74422,3.29760084 C104.484473,3.29760084 104.614347,3.29760084 104.614347,3.49259298 L104.614347,4.09529597 C104.614347,4.18392876 104.614347,4.29028811 104.74422,4.29028811 L105.604634,4.29028811 C106.013803,4.29499704 106.415477,4.41073831 106.773497,4.62709272 C107.390398,5.1057098 110.685944,10.5654898 111.935979,12.4090519 C110.396626,14.643446 108.668184,16.7147608 106.773497,18.5956207 C106.210882,19.0208891 105.55596,19.277601 104.874094,19.3401362 L104.257194,19.3401362 C104.12732,19.3401362 104.111086,19.3401362 104.111086,19.4996752 L104.111086,20.0491985 C104.111086,20.2087376 104.111086,20.3150969 104.257194,20.3150969 C104.403302,20.3150969 105.507229,20.3150969 107.000777,20.3150969 C109.062522,20.3150969 110.052809,20.3150969 110.24762,20.3150969 C110.442431,20.3150969 110.458665,20.3150969 110.458665,20.1023782 L110.458665,19.4819487 C110.458665,19.4819487 110.458665,19.3401362 110.24762,19.3401362 L109.51708,19.3401362 C109.356615,19.3548407 109.197703,19.2965985 109.077858,19.1791583 C108.958012,19.0617181 108.887855,18.8954873 108.883946,18.7197067 C109.899683,16.8047333 111.073418,14.9950217 112.390537,13.3131063 L112.487942,13.3131063 C113.659354,15.1168997 114.743131,16.9866763 115.734785,18.9146988 C115.734785,19.2337768 115.523741,19.3401362 114.939309,19.3401362 L114.565922,19.3401362 C114.436048,19.3401362 114.419814,19.3401362 114.419814,19.4996752 L114.419814,20.1023782 C114.419814,20.2441907 114.419814,20.3150969 114.630859,20.3150969 C114.841903,20.3150969 116.25428,20.3150969 118.218621,20.3150969 C121.124545,20.3150969 122.001193,20.3150969 122.212238,20.3150969 C122.423283,20.3150969 122.423283,20.2264641 122.423283,20.1201048 L122.423283,19.4996752 L122.390814,19.5705815 Z M130.394283,13.0826611 C131.076121,13.0826611 131.660552,13.0826611 132.456029,13.0826611 C136.725628,13.0826611 139.160761,11.1150131 139.160761,8.24331063 C139.162624,6.74424201 138.473046,5.34492187 137.326294,4.52073337 C135.84898,3.43941331 134.355432,3.20896805 131.222229,3.20896805 C130.378049,3.20896805 128.884501,3.20896805 128.429943,3.20896805 C125.767532,3.20896805 124.842181,3.20896805 124.566199,3.20896805 C124.290218,3.20896805 124.420092,3.20896805 124.420092,3.36850707 L124.420092,3.98893662 C124.420092,4.13074908 124.420092,4.18392876 124.566199,4.18392876 L125.767532,4.18392876 C126.270792,4.18392876 126.53054,4.18392876 126.579242,4.71572551 C126.627945,5.24752226 126.579242,7.51652174 126.579242,9.09418544 L126.579242,11.841802 C126.579242,14.6248717 126.579242,18.3651755 126.481837,18.5956207 C126.481837,19.1983237 126.22209,19.3224096 125.361676,19.3224096 L124.696073,19.3224096 C124.566199,19.3224096 124.549965,19.3224096 124.549965,19.4819487 L124.549965,20.1201048 C124.549965,20.2087376 124.549965,20.2796438 124.76101,20.2796438 C124.972055,20.2796438 126.027279,20.2796438 128.267601,20.2796438 C131.238463,20.2796438 132.033939,20.2796438 132.391092,20.2796438 C132.748245,20.2796438 132.618371,20.2796438 132.618371,20.0846517 L132.618371,19.4642221 C132.618371,19.3755893 132.618371,19.3046831 132.407326,19.3046831 L131.108589,19.3046831 C130.702734,19.3046831 130.442986,19.0565113 130.394283,18.5424411 C130.345581,18.0283709 130.394283,14.9971294 130.394283,13.8626296 L130.394283,12.9763017 L130.394283,13.0826611 Z M130.394283,4.21938188 C130.789522,4.1313073 131.192263,4.0897081 131.595616,4.09529597 C132.568454,4.06954537 133.507344,4.48637955 134.187707,5.24609336 C134.86807,6.00580717 135.228715,7.04007291 135.183378,8.10149817 C135.236633,8.997337 135.019977,9.88759822 134.566477,10.636396 C133.920551,11.5248395 132.98299,12.1034791 131.952768,12.2495128 C131.408691,12.2600426 130.864971,12.2125465 130.329347,12.1077004 L130.329347,4.21938188 L130.394283,4.21938188 Z M144.631692,11.6999895 C144.631692,13.968989 144.631692,16.2202619 144.631692,18.5956207 C144.631692,19.1983237 144.177134,19.3578628 143.608936,19.3578628 L142.845928,19.3578628 C142.716054,19.3578628 142.716054,19.3578628 142.716054,19.5528549 L142.716054,20.1023782 C142.716054,20.2619172 142.716054,20.35055 142.927099,20.35055 C143.138144,20.35055 143.787513,20.35055 146.482393,20.35055 C149.177273,20.35055 149.729236,20.35055 149.810407,20.35055 C150.183794,20.35055 150.216263,20.35055 150.216263,20.1378313 L150.216263,19.5705815 C150.216263,19.4464955 150.216263,19.3755893 150.005218,19.3755893 L148.982462,19.3755893 C148.609075,19.3755893 148.39803,18.9501519 148.349328,18.4360817 C148.300625,17.9220115 148.219454,15.4402933 148.219454,14.0221687 L148.219454,12.7990361 L149.079867,12.7990361 C150.297434,12.7990361 151.336424,14.571692 152.196837,16.2025354 C152.947471,17.7105046 153.875256,19.1049688 154.956654,20.35055 C155.687194,20.35055 156.580076,20.35055 157.375552,20.35055 C159.339893,20.35055 159.989261,20.35055 160.200306,20.35055 C160.411351,20.35055 160.411351,20.35055 160.411351,20.1378313 L160.411351,19.5705815 C160.411351,19.4819487 160.411351,19.3755893 160.21654,19.3755893 C159.569943,19.3953377 158.930483,19.2238395 158.36584,18.8792457 C157.862579,18.3297224 156.48267,16.5038869 156.336563,16.2911682 C156.190455,16.0784494 154.713141,13.8626296 154.404691,13.4903719 C153.995485,12.8940347 153.428994,12.4486672 152.781269,12.2140597 L152.781269,12.0545207 C155.021591,11.8595285 157.424255,10.4945836 157.424255,7.44561551 C157.326344,6.3838418 156.795639,5.42670662 155.97941,4.83981142 C154.692599,3.76199681 153.103461,3.20447122 151.482532,3.26214772 C150.443542,3.26214772 148.235688,3.26214772 146.790843,3.26214772 C144.014792,3.26214772 143.219315,3.26214772 142.992036,3.26214772 C142.764757,3.26214772 142.845928,3.26214772 142.845928,3.42168675 L142.845928,4.07756941 C142.845928,4.1662022 142.845928,4.23710843 142.992036,4.23710843 L144.014792,4.23710843 C144.371944,4.23710843 144.696629,4.64481928 144.729097,5.44251441 C144.761566,6.24020953 144.729097,7.62288109 144.729097,9.39553693 L144.729097,11.7177161 L144.631692,11.6999895 Z M148.316859,4.96389733 C148.326948,4.71432263 148.425991,4.47894305 148.592841,4.30801467 C148.889195,4.12772015 149.22983,4.05333048 149.566894,4.09529597 C150.585479,4.11275526 151.573409,4.47853705 152.391648,5.14116291 C153.029323,5.85522643 153.374876,6.82090688 153.349467,7.81787323 C153.325052,8.9752453 152.869745,10.0717738 152.088583,10.8545003 C151.307421,11.6372269 150.267869,12.0385498 149.209741,11.9658879 L148.186985,11.9658879 L148.316859,4.96389733 Z M168.333649,4.13074908 L171.694132,4.21938188 C172.373154,4.27484524 173.032692,4.49271094 173.626004,4.85753798 C174.685633,5.66849399 175.68943,6.56312511 176.629334,7.5342483 C176.69766,7.64343567 176.829088,7.68120118 176.937784,7.62288109 L177.34364,7.42788895 C177.473513,7.42788895 177.473513,7.30380304 177.34364,7.17971713 C177.213766,7.05563122 176.402055,3.63440545 176.30465,3.3153274 C176.207244,2.99624935 176.30465,3.19124149 176.093605,3.19124149 C175.88256,3.19124149 175.476705,3.19124149 175.070849,3.19124149 L166.14203,3.19124149 C163.820537,3.19124149 162.895186,3.19124149 162.375691,3.19124149 C162.229583,3.19124149 162.197115,3.27987428 162.197115,3.35078051 L162.197115,3.91803038 C162.197115,4.07756941 162.197115,4.1662022 162.326989,4.1662022 L163.317276,4.1662022 C163.999113,4.1662022 164.25886,4.32574123 164.356266,5.1057098 C164.356266,5.35388161 164.356266,8.29649031 164.356266,10.2818649 L164.356266,18.3119958 C164.356266,19.1451441 164.25886,19.3224096 163.089997,19.3224096 L162.326989,19.3224096 C162.148412,19.3224096 162.067241,19.3224096 162.067241,19.5351283 L162.067241,20.031472 C162.067241,20.2264641 162.067241,20.2973704 162.29452,20.2973704 L163.382213,20.2973704 L174.291607,20.2973704 L176.6131,20.2973704 C176.848644,20.3254817 177.073123,20.1812971 177.165063,19.9428392 L178.317693,16.3975275 C178.317693,16.3975275 178.317693,16.255715 178.220287,16.2025354 L177.781963,15.9543635 C177.781963,15.9543635 177.635855,15.9543635 177.522216,15.9543635 C176.706193,16.8693031 175.838682,17.7277546 174.924741,18.5247145 C174.351218,18.9611994 173.687388,19.2353036 172.992869,19.3224096 C172.45714,19.3224096 171.369448,19.3224096 170.963592,19.3224096 C170.248805,19.3801445 169.530195,19.3082665 168.83691,19.1096909 C168.512225,18.9678785 168.220009,18.5424411 168.220009,17.3370351 C168.220009,16.9115977 168.090136,14.5894185 168.090136,13.2953798 L168.090136,11.8595285 C168.952439,11.8466209 169.814615,11.8939885 170.671376,12.001341 C171.218477,12.0695394 171.719501,12.3685252 172.067519,12.8344893 C172.2709,13.2235821 172.439434,13.6331899 172.57078,14.0576218 C172.57078,14.2171608 172.668185,14.2703405 172.781824,14.2526139 L173.398725,14.128528 C173.528598,14.128528 173.626004,14.128528 173.60977,13.9335359 C173.518615,13.0268748 173.469849,12.115729 173.463662,11.2036459 C173.41784,10.3712488 173.41784,9.53659821 173.463662,8.70420115 C173.463662,8.56238869 173.463662,8.54466213 173.252617,8.50920901 L172.57078,8.50920901 C172.440906,8.50920901 172.359735,8.50920901 172.359735,8.72192771 C172.301646,9.26975818 172.098549,9.78721344 171.775303,10.2109586 C171.469553,10.5904687 171.059478,10.8516686 170.606439,10.9554741 C169.749922,11.0660332 168.887553,11.1134115 168.025199,11.0972865 L168.025199,4.13074908 L168.333649,4.13074908 Z M182.084031,14.9439497 C181.986626,14.9439497 181.905455,14.9439497 181.88922,15.1034887 L181.483365,19.6592142 C181.483365,19.9251126 181.483365,20.0491985 181.840518,20.0491985 C182.031692,20.0689902 182.213634,19.9554665 182.295076,19.7655736 C182.441184,19.5174018 182.554823,19.3578628 182.700931,19.3578628 C182.912491,19.3938841 183.112971,19.4850965 183.285363,19.6237611 C184.681902,20.4262902 186.257361,20.7826347 187.830944,20.6519015 C189.224783,20.7995008 190.612618,20.3124454 191.666701,19.3057578 C192.720783,18.2990702 193.347657,16.8620034 193.39928,15.333934 C193.517097,13.9696785 192.991001,12.6337304 192.003138,11.7886223 C191.050268,10.9495338 189.942775,10.3448834 188.756294,10.0159665 C187.550637,9.75093158 186.407165,9.22013154 185.395811,8.45602933 C184.862586,7.88321144 184.614804,7.06493517 184.730208,6.25793609 C184.995871,4.89269612 186.1516,3.95762212 187.425088,4.07756941 C188.366649,4.01074856 189.290868,4.37713798 189.97386,5.08798324 C190.675372,5.78197034 191.229449,6.63503578 191.597282,7.58742797 C191.64986,7.72597675 191.792131,7.79588401 191.921967,7.746967 L192.47393,7.58742797 C192.47393,7.58742797 192.603804,7.58742797 192.603804,7.44561551 L192.197948,3.35078051 C192.197948,3.20896805 192.197948,2.94306967 191.938201,2.94306967 C191.802205,2.94001436 191.669718,2.99033295 191.564814,3.08488214 L191.240129,3.40396019 C191.09102,3.58020775 190.854426,3.63044117 190.655698,3.5280461 C189.561703,3.16777609 188.420957,3.00608639 187.27898,3.04942902 C185.973508,2.98500541 184.684698,3.38975522 183.610047,4.20165532 C182.380013,4.85696298 181.630983,6.25505688 181.710644,7.746967 C181.62456,9.03483878 182.092668,10.2930269 182.976913,11.1504662 C184.104812,12.0410943 185.34647,12.7458705 186.66208,13.2422001 C189.908924,14.412153 190.379716,15.0148559 190.379716,16.9825039 C190.379716,18.9501519 188.415376,19.6414877 187.132872,19.6414877 C185.873684,19.697975 184.666114,19.0914297 183.886029,18.0106443 C183.33908,17.2164899 182.987027,16.2829109 182.863273,15.2984809 C182.863273,15.1389419 182.863273,15.1034887 182.684697,15.1034887 L182.019094,15.1034887 L182.084031,14.9439497 Z M198.058501,14.9439497 C197.961095,14.9439497 197.879924,14.9439497 197.86369,15.1034887 L197.457835,19.6592142 C197.457835,19.9251126 197.457835,20.0491985 197.814987,20.0491985 C198.006162,20.0689902 198.188103,19.9554665 198.269545,19.7655736 C198.415653,19.5174018 198.529293,19.3578628 198.675401,19.3578628 C198.88696,19.3938841 199.087441,19.4850965 199.259833,19.6237611 C200.656372,20.4262902 202.23183,20.7826347 203.805414,20.6519015 C205.199252,20.7995008 206.587088,20.3124454 207.64117,19.3057578 C208.695253,18.2990702 209.322126,16.8620034 209.37375,15.333934 C209.491566,13.9696785 208.96547,12.6337304 207.977607,11.7886223 C207.024738,10.9495338 205.917244,10.3448834 204.730764,10.0159665 C203.525242,9.75045522 202.381856,9.21969475 201.370281,8.45602933 C200.837056,7.88321144 200.589274,7.06493517 200.704678,6.25793609 C200.970341,4.89269612 202.12607,3.95762212 203.399558,4.07756941 C204.341119,4.01074856 205.265338,4.37713798 205.94833,5.08798324 C206.649841,5.78197034 207.203918,6.63503578 207.571752,7.58742797 C207.62433,7.72597675 207.766601,7.79588401 207.896436,7.746967 L208.4484,7.58742797 C208.4484,7.58742797 208.578273,7.58742797 208.578273,7.44561551 L208.172418,3.35078051 C208.172418,3.20896805 208.172418,2.94306967 207.91267,2.94306967 C207.776675,2.94001436 207.644188,2.99033295 207.539283,3.08488214 L207.214599,3.40396019 C207.06549,3.58020775 206.828896,3.63044117 206.630167,3.5280461 C205.536172,3.16777609 204.395427,3.00608639 203.25345,3.04942902 C201.947977,2.98500541 200.659168,3.38975522 199.584517,4.20165532 C198.354483,4.85696298 197.605453,6.25505688 197.685114,7.746967 C197.59903,9.03483878 198.067138,10.2930269 198.951383,11.1504662 C200.079282,12.0410943 201.32094,12.7458705 202.63655,13.2422001 C205.883393,14.412153 206.354186,15.0148559 206.354186,16.9825039 C206.354186,18.9501519 204.389845,19.6414877 203.107342,19.6414877 C201.848154,19.697975 200.640584,19.0914297 199.860499,18.0106443 C199.313549,17.2164899 198.961497,16.2829109 198.837743,15.2984809 C198.837743,15.1389419 198.837743,15.1034887 198.659167,15.1034887 L198.058501,14.9439497 Z" id="Shape"></path>
            </g>
        </g>
    </g>
</svg>