<?xml version="1.0" encoding="UTF-8"?>
<svg width="40px" height="40px" viewBox="0 0 40 40" version="1.1" xmlns="http://www.w3.org/2000/svg" xmlns:xlink="http://www.w3.org/1999/xlink">
    <!-- Generator: Sketch 49.2 (51160) - http://www.bohemiancoding.com/sketch -->
    <title>Group 6</title>
    <desc>Created with Sketch.</desc>
    <defs></defs>
    <g id="Page-1" stroke="none" stroke-width="1" fill="none" fill-rule="evenodd">
        <g id="选择时间段" transform="translate(-608.000000, -170.000000)">
            <g id="Group-10" transform="translate(608.000000, 159.000000)">
                <g id="Group-6" transform="translate(0.000000, 11.000000)">
                    <circle id="Oval-3" fill="#2FC25B" cx="20" cy="20" r="20"></circle>
                    <g id="订单-成功" transform="translate(9.000000, 8.000000)" fill-rule="nonzero">
                        <rect id="Rectangle-path" fill="#000000" opacity="0" x="0" y="0" width="22" height="22"></rect>
                        <path d="M13.5739508,11.3022936 L9.99903347,14.4784702 L8.47281877,12.5810141 C8.3291222,12.3648368 8.0759166,12.2480279 7.81819457,12.2790225 C7.56047255,12.3100172 7.34218217,12.48353 7.25383834,12.7276134 C7.16549451,12.9716967 7.22216206,13.2447282 7.40034359,13.4334944 L9.3665481,15.8946874 C9.48386394,16.0446517 9.658119,16.1392473 9.84778697,16.1559314 C10.0157945,16.1537983 10.1772044,16.0902126 10.3015265,15.9771855 L14.4814298,12.3747688 C14.7468565,12.1198242 14.7644303,11.7010685 14.5212976,11.4247813 C14.2781649,11.1484942 13.8605732,11.1126841 13.5739508,11.3435427 L13.5739508,11.3022936 Z" id="Shape" fill="#FFFFFF"></path>
                        <path d="M17.6026076,1.5262697 L14.8526712,1.5262697 L14.3989317,0.398795783 C14.2872068,0.157363871 14.0462182,0.00206012514 13.780196,5.5e-05 L8.18407545,5.5e-05 C7.91308225,-0.00331643765 7.66539506,0.152834186 7.55159008,0.398795783 L7.04285184,1.51252002 L4.29291543,1.51252002 C3.23899122,1.53440784 2.38984776,2.3835513 2.36795995,3.43747551 L2.36795995,20.0608411 C2.37517171,20.5847524 2.59119672,21.0841154 2.96809048,21.4481018 C3.34498424,21.8120883 3.85156897,22.0105881 4.37541352,21.9995462 L17.6026076,21.9995462 C18.6833687,22.0226408 19.5800699,21.1689321 19.6100612,20.0883405 L19.6100612,3.43747551 C19.58007,2.35688387 18.6833687,1.50317511 17.6026076,1.5262697 Z M8.62406527,1.3750232 L13.3677056,1.3750232 L14.385182,3.61622138 L7.60658882,3.61622138 L8.62406527,1.3750232 Z M18.2488427,20.0608411 C18.2197028,20.3822513 17.9382045,20.6209129 17.6163573,20.5970787 L4.37541352,20.5970787 C4.05356638,20.6209129 3.7720681,20.3822513 3.74292815,20.0608411 L3.74292815,3.43747551 C3.75349431,3.28052647 3.8261698,3.13425851 3.94487249,3.03103878 C4.06357519,2.92781904 4.21851777,2.87615824 4.37541352,2.88748823 L6.49286455,2.88748823 L5.98412633,4.01496214 C5.89029793,4.21023199 5.89400153,4.43830572 5.99412061,4.63042612 C6.0942397,4.82254653 6.27906024,4.95623537 6.49286455,4.99118959 L15.4164082,4.99118959 C15.6525042,4.99414389 15.8735979,4.87573259 16.0019831,4.6775728 C16.1303683,4.47941301 16.1480802,4.2292332 16.0488936,4.01496214 L15.5401553,2.88748823 L17.6026076,2.88748823 C17.7595034,2.87615824 17.914446,2.92781904 18.0331487,3.03103878 C18.1518514,3.13425851 18.2245268,3.28052647 18.235093,3.43747551 L18.2488427,20.0608411 Z" id="Shape" fill="#FFFFFF"></path>
                    </g>
                </g>
            </g>
        </g>
    </g>
</svg>