<?xml version="1.0" encoding="UTF-8"?>
<svg width="40px" height="40px" viewBox="0 0 40 40" version="1.1" xmlns="http://www.w3.org/2000/svg" xmlns:xlink="http://www.w3.org/1999/xlink">
    <!-- Generator: Sketch 49.2 (51160) - http://www.bohemiancoding.com/sketch -->
    <title>Group 8</title>
    <desc>Created with Sketch.</desc>
    <defs></defs>
    <g id="Page-1" stroke="none" stroke-width="1" fill="none" fill-rule="evenodd">
        <g id="选择时间段" transform="translate(-329.000000, -170.000000)">
            <g id="Group-9" transform="translate(329.000000, 159.000000)">
                <g id="Group-8" transform="translate(0.000000, 11.000000)">
                    <circle id="Oval-3" fill="#0378FB" cx="20" cy="20" r="20"></circle>
                    <g id="下单修改" transform="translate(7.000000, 8.000000)" fill-rule="nonzero">
                        <rect id="Rectangle-path" fill="#000000" opacity="0" x="0" y="0" width="24" height="24"></rect>
                        <path d="M10.6260415,2.71747755 L12.3959695,2.71747755 L12.3959695,3.61437347 L11.0791903,3.61437347 C10.727181,3.61437347 10.4418944,3.89966004 10.4418944,4.25157345 C10.4418944,4.60358278 10.727181,4.88886935 11.0791903,4.88886935 L14.9878922,4.88886935 C15.3398056,4.88886935 15.6252121,4.60358278 15.6252121,4.25157345 C15.6252121,3.89966004 15.3398056,3.61437347 14.9878922,3.61437347 L13.6704654,3.61437347 L13.6704654,2.71747755 L15.4598442,2.71747755 C15.8118536,2.71747755 16.0971641,2.43207105 16.0971641,2.08015765 C16.0971641,1.72814831 15.8118536,1.44283774 15.4598442,1.44283774 L10.6260415,1.44283777 C10.2740082,1.44283777 9.98872164,1.72814834 9.98872164,2.08015767 C9.98872164,2.43207105 10.2740082,2.71747755 10.6260415,2.71747755 Z M7.7383514,9.16116473 C7.7383514,9.51305416 8.02378187,9.79836471 8.3756713,9.79836471 L17.6471612,9.79836471 C17.9990746,9.79836471 18.2843612,9.51305414 18.2843612,9.16116473 C18.2843612,8.80913142 17.9990746,8.52384483 17.6471612,8.52384483 L8.3756713,8.52384483 C8.02378187,8.52384483 7.7383514,8.8091314 7.7383514,9.16116473 Z M17.6470413,11.979374 L8.3756473,11.979374 C8.02375787,11.979374 7.7383274,12.2646606 7.7383274,12.6166939 C7.7383274,12.9686073 8.02375787,13.2538939 8.3756473,13.2538939 L17.6471372,13.2538939 C17.9990506,13.2538939 18.2843372,12.9686073 18.2843372,12.6166939 C18.2843612,12.2646606 17.9990746,11.979374 17.6470413,11.979374 Z M17.6470413,15.4347832 L8.3756473,15.4347832 C8.02375787,15.4347832 7.7383274,15.7200698 7.7383274,16.0721031 C7.7383274,16.4240165 8.02375787,16.709423 8.3756473,16.709423 L17.6471372,16.709423 C17.9990506,16.709423 18.2843372,16.4240165 18.2843372,16.0721031 C18.2843612,15.7200698 17.9990746,15.4347832 17.6470413,15.4347832 Z M22.3602777,5.7379177 C22.3355505,5.37262137 22.2466428,5.03169253 22.0989989,4.721247 C21.8048863,4.05943971 21.3335099,3.67490841 20.9259782,3.45483363 C20.302401,3.11814991 19.7105063,3.1028243 19.6451506,3.10212877 L19.641601,3.10212877 L18.513334,3.09745193 L18.5105998,3.09745193 C18.1598376,3.09745193 17.8748629,3.38103565 17.8733999,3.73213362 C17.8719129,4.08404702 18.1560482,4.37060473 18.5080815,4.37209172 L19.6290096,4.37676855 C19.6603803,4.37813562 20.0114782,4.39806612 20.3561725,4.59638766 C20.7814042,4.84094984 21.0217693,5.24984862 21.0896193,5.84354208 C21.094416,5.90844209 21.0970542,19.5254497 21.0970542,19.5254497 C21.0970542,20.4493274 20.383514,21.2010737 19.5066925,21.2010737 L13.7946532,21.2010737 L13.7946532,21.2129936 L6.51614005,21.2129936 C5.63905471,21.2129936 4.92565839,20.4612473 4.92565839,19.5372258 C4.92565839,19.5372258 4.92827261,5.92024209 4.93306938,5.85546202 C5.00094337,5.26150472 5.24126043,4.85272587 5.66654008,4.60816369 C6.01133031,4.40986612 6.36242826,4.38993565 6.39367907,4.38854459 L7.51475099,4.38386775 C7.86664042,4.38238076 8.15077577,4.09594296 8.14931275,3.74402955 C8.14794569,3.39293161 7.86285098,3.10934787 7.51211277,3.10934787 L7.50935465,3.10934787 L6.38120753,3.1140247 C6.3799364,3.11414463 6.37880915,3.11414463 6.37753802,3.11414463 C6.31220631,3.11472023 5.72040754,3.13004585 5.09683033,3.46672957 C4.49901166,3.78945476 3.76316655,4.46546044 3.65260152,5.85325552 C3.6499873,5.88781608 3.65008323,5.92192097 3.65272145,5.95547421 C3.65169016,5.98682095 3.65113853,6.0181677 3.65113853,6.0497543 L3.65113853,19.5372258 C3.65113853,21.1640188 4.93640313,22.4875135 6.51614005,22.4875135 L19.5067165,22.4757135 C21.0864534,22.4757135 22.3721737,21.1641387 22.3721737,19.5372258 C22.3721737,19.5372258 22.3720537,19.1175823 22.371742,18.4259152 C22.371742,18.4257953 22.3638273,5.77202257 22.3602777,5.7379177 Z" id="Shape" fill="#FFFFFF"></path>
                    </g>
                </g>
            </g>
        </g>
    </g>
</svg>