<?xml version="1.0" encoding="UTF-8"?>
<svg width="40px" height="40px" viewBox="0 0 40 40" version="1.1" xmlns="http://www.w3.org/2000/svg" xmlns:xlink="http://www.w3.org/1999/xlink">
    <!-- Generator: Sketch 49.2 (51160) - http://www.bohemiancoding.com/sketch -->
    <title>Group 5</title>
    <desc>Created with Sketch.</desc>
    <defs></defs>
    <g id="Page-1" stroke="none" stroke-width="1" fill="none" fill-rule="evenodd">
        <g id="选择时间段" transform="translate(-887.000000, -170.000000)">
            <g id="Group-11" transform="translate(887.000000, 159.000000)">
                <g id="Group-5" transform="translate(0.000000, 11.000000)">
                    <circle id="Oval-3" fill="#36CFC9" cx="20" cy="20" r="20"></circle>
                    <g id="金额" transform="translate(10.000000, 9.000000)" fill="#FFFFFF" fill-rule="nonzero">
                        <path d="M14.1868512,4.68347339 C14.8096886,4.68347339 15.2249135,4.32776655 15.2941176,3.85349077 L15.2941176,0.8892671 C15.2941176,0.414991308 14.8788927,0.0592844676 14.2560554,0.0592844676 C13.7024221,0.0592844676 13.2179931,0.414991308 13.2179931,0.8892671 L13.2179931,3.85349077 C13.2179931,4.26848208 13.633218,4.62418892 14.1868512,4.68347339 Z M5.67474047,4.68347339 C6.29757784,4.68347339 6.71280275,4.32776655 6.78200692,3.85349077 L6.78200692,0.8892671 C6.71280275,0.414991308 6.29757784,0 5.74394464,0 C5.12110727,0 4.70588235,0.35570684 4.70588235,0.829982633 L4.70588235,3.79420629 C4.70588235,4.26848208 5.12110727,4.62418892 5.67474047,4.68347339 Z M7.88927335,1.48211183 L11.9723183,1.48211183 L11.9723183,3.26064603 L7.88927335,3.26064603 L7.88927335,1.48211183 Z" id="Shape"></path>
                        <path d="M17.4,1.17086835 L16.2,1.17086835 L16.2,3.21456583 L17.3333333,3.21456583 C17.7333333,3.21456583 18,3.55518208 18,3.89579833 L18,8.18756304 L18.0666667,18.1593277 C18.0666667,19.6156863 17.7333333,19.9563025 17.3333333,19.9563025 L2.66666666,19.9563025 C2.26666666,19.9563025 1.93333332,19.6156863 1.93333334,19.2069468 L2,8.18756304 L2,3.89579833 C2,3.55518208 2.26666666,3.21456585 2.66666666,3.21456583 L3.8,3.21456583 L3.8,1.17086835 L2.6,1.17086835 C1.2,1.17086835 0,2.32896359 0,3.82767507 L0,19.3431933 C0,20.7737815 1.2,22 2.6,22 L17.4,22 C18.8,22 20,20.7737815 20,19.3431933 L20,3.82767507 C20,2.32896359 18.8,1.17086835 17.4,1.17086835 Z" id="Shape" stroke="#36CFC9" stroke-width="0.5"></path>
                        <path d="M13.1674208,12.5515561 C13.6742082,12.5515561 14.1176471,12.0710043 14.1176471,11.5218022 C14.1176471,10.9726001 13.6742082,10.4920483 13.1674208,10.4920483 L12.280543,10.4920483 L13.800905,8.84444201 C14.1809955,8.43254044 14.1809955,7.81468808 13.800905,7.40278652 C13.4208145,6.99088495 12.8506787,6.99088495 12.4705882,7.40278652 L10,10.0114965 L7.52941177,7.33413626 C7.14932127,6.92223469 6.57918553,6.92223469 6.19909503,7.33413626 C5.81900453,7.74603783 5.81900453,8.36389018 6.19909503,8.77579175 L7.71945702,10.423398 L6.83257918,10.423398 C6.32579185,10.423398 5.88235294,10.9039499 5.88235294,11.453152 C5.88235294,12.002354 6.32579185,12.4829059 6.83257918,12.4829059 L9.04977376,12.4829059 L9.04977376,13.7186106 L6.83257918,13.7186106 C6.32579185,13.7186106 5.88235294,14.1991624 5.88235294,14.7483645 C5.88235294,15.2975666 6.32579187,15.7781184 6.83257918,15.7781184 L9.04977376,15.7781184 L9.04977376,16.5332713 C9.04977376,17.0824734 9.49321266,17.5630252 10,17.5630252 C10.5067873,17.5630252 10.9502262,17.0824734 10.9502262,16.5332713 L10.9502262,15.7781184 L13.1674208,15.7781184 C13.6742082,15.7781184 14.1176471,15.2975666 14.1176471,14.7483645 C14.1176471,14.1991624 13.6742081,13.7186106 13.1674208,13.7186106 L10.9502262,13.7186106 L10.9502262,12.4829059 L13.1674208,12.4829059 L13.1674208,12.5515561 Z" id="Shape"></path>
                    </g>
                </g>
            </g>
        </g>
    </g>
</svg>