<?xml version="1.0" encoding="UTF-8"?>
<svg width="40px" height="40px" viewBox="0 0 40 40" version="1.1" xmlns="http://www.w3.org/2000/svg" xmlns:xlink="http://www.w3.org/1999/xlink">
    <!-- Generator: Sketch 49.2 (51160) - http://www.bohemiancoding.com/sketch -->
    <title>Group 7</title>
    <desc>Created with Sketch.</desc>
    <defs></defs>
    <g id="Page-1" stroke="none" stroke-width="1" fill="none" fill-rule="evenodd">
        <g id="选择时间段" transform="translate(-1166.000000, -170.000000)">
            <g id="Group-12" transform="translate(1166.000000, 159.000000)">
                <g id="Group-7" transform="translate(0.000000, 11.000000)">
                    <circle id="Oval-3" fill="#8A5CF6" cx="20" cy="20" r="20"></circle>
                    <g id="预计算" transform="translate(10.000000, 10.000000)" fill="#FFFFFF" fill-rule="nonzero">
                        <path d="M20,10 L20,1.33333333 C20,0.596953667 19.4030463,4.50902501e-17 18.6666667,0 L1.33333333,0 C0.596953667,-4.50902501e-17 9.01805001e-17,0.596953667 0,1.33333333 L0,18.6666667 C9.01805001e-17,19.4030463 0.596953667,20 1.33333333,20 L10,20 L10,18.6666667 L1.33333333,18.6666667 L1.33333333,1.33333333 L18.6666667,1.33333333 L18.6666667,10 L20,10 Z M20,10 L20,1.33333333 C20,0.596953667 19.4030463,4.50902501e-17 18.6666667,0 L1.33333333,0 C0.596953667,-4.50902501e-17 9.01805001e-17,0.596953667 0,1.33333333 L0,18.6666667 C9.01805001e-17,19.4030463 0.596953667,20 1.33333333,20 L10,20 L10,18.6666667 L1.33333333,18.6666667 L1.33333333,1.33333333 L18.6666667,1.33333333 L18.6666667,10 L20,10 Z" id="Shape"></path>
                        <path d="M15,20 C12.2385763,20 10,17.7614237 10,15 C10,12.2385763 12.2385763,10 15,10 C17.7614238,10 20,12.2385763 20,15 C20,17.7614237 17.7614238,20 15,20 Z M15,18.6719788 C17.0279779,18.6719788 18.6719788,17.0279779 18.6719788,15 C18.6719788,12.9720221 17.0279779,11.3280212 15,11.3280212 C12.9720222,11.3280213 11.3280213,12.9720222 11.3280213,15 C11.3280213,17.0279778 12.9720222,18.6719787 15,18.6719788 Z" id="Shape"></path>
                        <path d="M15.5157257,13.6622517 C15.5157257,13.2965002 15.1764189,13 14.7578628,13 C14.3393067,13 14,13.2965002 14,13.6622517 L14,15.3377483 C14,15.7034998 14.3393067,16 14.7578628,16 L17.2421372,16 C17.6606933,16 18,15.7034998 18,15.3377483 C18,14.9719969 17.6606933,14.6754967 17.2421372,14.6754967 L15.5157257,14.6754967 L15.5157257,13.6622517 Z" id="Shape"></path>
                        <path d="M3,5 L9.8845807,5 L9.8845807,6 L3,6 L3,5 Z M11.1154193,5 L18,5 L18,6 L11.1154193,6 L11.1154193,5 Z" id="Shape"></path>
                        <path d="M6.96610169,3 L6.96610169,9.62760417 L5.57302066,9.62760417 L5.57302066,3 L6.96610169,3 Z M3.98490829,11.3932292 L9,16.0807292 L8.01369863,17 L3,12.3138021 L3.98490829,11.3932292 Z" id="Shape"></path>
                        <polygon id="Shape" points="9 11.9863014 3.98513702 17 3 16.0150917 8.01625639 11"></polygon>
                    </g>
                </g>
            </g>
        </g>
    </g>
</svg>