<?xml version="1.0" encoding="UTF-8"?>
<svg width="15px" height="14px" viewBox="0 0 15 14" version="1.1" xmlns="http://www.w3.org/2000/svg" xmlns:xlink="http://www.w3.org/1999/xlink">
    <!-- Generator: Sketch 52.1 (67048) - http://www.bohemiancoding.com/sketch -->
    <title>Fill 492</title>
    <desc>Created with Sketch.</desc>
    <g id="Page-1" stroke="none" stroke-width="1" fill="none" fill-rule="evenodd" fill-opacity="0.25">
        <g id="周-首页默认-侧导航修改" transform="translate(-1367.000000, -302.000000)" fill="#000000">
            <g id="分组" transform="translate(1322.000000, 293.000000)">
                <g id="Fill-492" transform="translate(45.000000, 9.000000)">
                    <path d="M9.93670886,10 L13.4810127,10 L13.4810127,13 L9.93670886,13 L9.93670886,10 Z M1.07594937,10 L4.62025316,10 L4.62025316,13 L1.07594937,13 L1.07594937,10 Z M9.93670886,2 L13.4810127,2 L13.4810127,5 L9.93670886,5 L9.93670886,2 Z M9.93670886,6 L13.4810127,6 L13.4810127,9 L9.93670886,9 L9.93670886,6 Z M1.07594937,6 L4.62025316,6 L4.62025316,9 L1.07594937,9 L1.07594937,6 Z M4.62025316,5 L1.07594937,5 L1.07594937,2 L4.62025316,2 L4.62025316,5 Z M9.05063291,5 L5.50632911,5 L5.50632911,2 L9.05063291,2 L9.05063291,5 Z M9.05063291,13 L5.50632911,13 L5.50632911,10 L9.05063291,10 L9.05063291,13 Z M5.50632911,6 L9.05063291,6 L9.05063291,9 L5.50632911,9 L5.50632911,6 Z M0.189873418,14 L14.3670886,14 L14.3670886,0 L0.189873418,0 L0.189873418,14 Z" id="Fill-491"></path>
                </g>
            </g>
        </g>
    </g>
</svg>